# xmcd
#
# Track frame offsets:
# 150
# 23962
# 43800
# 63812
# 96297
# 112522
# 126657
# 145340
# 168942
# 184062
# 217700
# 240167
# 267135
# 279595
#
# Disc length: 3907 seconds
#
#
# Revision: 2
# Processed by: cddbd v1.5.1PL0 Copyright (c) Steve Scherf et al.
# Submitted via: FreeRIP 2.51 
#
DISCID=bc0f410e
DTITLE=James Brown - Mr. Dynamite
DYEAR=1900
DGENRE=
TTITLE0=Sex Machine
TTITLE1=Soul Power
TTITLE2=Superbad
TTITLE3=It's A New Day, So Let A Man Come In And Do The Popcorn (Part 1)
TTITLE4=Make It Funk
TTITLE5=Hot Pants (Part 1)
TTITLE6=Get On Good Foot (Part 1)
TTITLE7=Doing It To Death
TTITLE8=There It Is (Part 1)
TTITLE9=The Payback
TTITLE10=There Was A Time (Live)
TTITLE11=I Don't Want Nobody To Give Me Nothing
TTITLE12=Think
TTITLE13=Say It Loud I'm Black And Proud
EXTD=
EXTT0=
EXTT1=
EXTT2=
EXTT3=
EXTT4=
EXTT5=
EXTT6=
EXTT7=
EXTT8=
EXTT9=
EXTT10=
EXTT11=
EXTT12=
EXTT13=
PLAYORDER=
